<svg fill="#000" version="1.1" id="Layer_1" xmlns="http://www.w3.org/2000/svg" viewBox="-49.15 -49.15 589.82 589.82" xml:space="preserve" width="800" height="800"><rect x="-49.15" y="-49.15" width="589.82" height="589.82" rx="294.91" fill="#fff" id="SVGRepo_bgCarrier" stroke-width="0"/><g id="SVGRepo_iconCarrier"><path d="M235.52 0H256v40.96h-20.48z"/><path transform="rotate(-30 143.364 47.916)" d="M133.118 27.429h20.48v40.96h-20.48z"/><path transform="rotate(-60.007 68.388 122.88)" d="M58.151 102.404h20.48v40.96h-20.48z"/><path d="M20.48 215.04h40.96v20.48H20.48z"/><path transform="rotate(-29.991 68.41 327.7)" d="M47.912 317.445h40.96v20.48h-40.96z"/><path transform="rotate(-60.007 423.1 327.723)" d="M412.876 307.254h20.48v40.96h-20.48z"/><path d="M430.08 215.04h40.96v20.48h-40.96z"/><path transform="rotate(-29.991 423.144 122.871)" d="M402.637 112.643h40.96v20.48h-40.96z"/><path transform="rotate(-60 348.157 47.926)" d="M327.681 37.676h40.96v20.48h-40.96z"/><path d="M399.36 215.04c0-43.64-18.66-85.36-51.2-114.48-32.99-29.53-75.61-43.04-119.96-38.14-70.02 7.78-126.78 64.21-134.96 134.18-4.2 35.91 3.74 70.77 22.94 100.82 17.528 27.432 30.226 58.44 38.146 91.7H122.88v20.48h35.651a345.43 345.43 0 0 1 2.929 20.48h-28.34v20.48h30.08c.354 6.594.64 13.211.64 19.91v21.05h163.84v-25.39c0-5.191.297-10.381.566-15.57H358.4v-20.48h-28.378a310.363 310.363 0 0 1 3.167-20.48h35.451v-20.48h-30.889c8.321-32.402 21.684-64.591 40.399-96.27 13.87-23.5 21.21-50.4 21.21-77.81zM307.2 466.13v4.91H184.32v-.57c0-6.698-.307-13.309-.644-19.91h124.087c-.251 5.189-.563 10.378-.563 15.57zm2.229-36.05H182.023a367.538 367.538 0 0 0-2.743-20.48h133.101a330.668 330.668 0 0 0-2.952 20.48zm7.197-40.96H175.371c-8.329-37.288-22.327-72.045-41.931-102.72-16.63-26.03-23.5-56.26-19.86-87.42 7.09-60.6 56.24-109.47 116.88-116.2 38.57-4.28 75.46 7.45 104.04 33.04 28.21 25.24 44.38 61.4 44.38 99.22 0 23.75-6.35 47.05-18.37 67.39-20.682 35.019-35.223 70.704-43.884 106.69z"/><path d="m302.15 169.91-14.48 14.48 35.77 35.77-35.77 35.77 14.48 14.48 50.25-50.25zM203.85 184.39l-14.48-14.48-50.25 50.25 50.25 50.25 14.48-14.48-35.77-35.77z"/><path transform="rotate(-70.007 245.494 220.162)" d="M172.685 209.919h145.593v20.47H172.685z"/></g></svg>