<svg xmlns="http://www.w3.org/2000/svg" xml:space="preserve" id="Layer_1" width="800" height="800" fill="#000" version="1.1" viewBox="-49.15 -49.15 589.82 589.82"><rect id="SVGRepo_bgCarrier" width="589.82" height="589.82" x="-49.15" y="-49.15" fill="#fff" stroke-width="0" rx="294.91"/><g id="SVGRepo_iconCarrier"><path d="M235.52 0H256v40.96h-20.48zM124.247 35.297l17.736-10.24 20.48 35.471-17.736 10.24zM45.537 121.51l10.238-17.737 35.475 20.475-10.238 17.738zM20.48 215.04h40.96v20.48H20.48zM45.53 329.065l35.476-20.476 10.238 17.738-35.476 20.476zM400.26 326.345l10.238-17.737 35.476 20.476-10.238 17.737zM430.08 215.04h40.96v20.48h-40.96zM400.27 124.264l35.475-20.476 10.238 17.738-35.475 20.476zM329.042 60.534l20.48-35.472 17.736 10.24-20.48 35.472zM399.36 215.04c0-43.64-18.66-85.36-51.2-114.48-32.99-29.53-75.61-43.04-119.96-38.14-70.02 7.78-126.78 64.21-134.96 134.18-4.2 35.91 3.74 70.77 22.94 100.82 17.528 27.432 30.226 58.44 38.146 91.7H122.88v20.48h35.651a345 345 0 0 1 2.929 20.48h-28.34v20.48h30.08c.354 6.594.64 13.211.64 19.91v21.05h163.84v-25.39c0-5.191.297-10.381.566-15.57H358.4v-20.48h-28.378a310 310 0 0 1 3.167-20.48h35.451v-20.48h-30.889c8.321-32.402 21.684-64.591 40.399-96.27 13.87-23.5 21.21-50.4 21.21-77.81M307.2 466.13v4.91H184.32v-.57c0-6.698-.307-13.309-.644-19.91h124.087c-.251 5.189-.563 10.378-.563 15.57m2.229-36.05H182.023a368 368 0 0 0-2.743-20.48h133.101a331 331 0 0 0-2.952 20.48m7.197-40.96H175.371c-8.329-37.288-22.327-72.045-41.931-102.72-16.63-26.03-23.5-56.26-19.86-87.42 7.09-60.6 56.24-109.47 116.88-116.2 38.57-4.28 75.46 7.45 104.04 33.04 28.21 25.24 44.38 61.4 44.38 99.22 0 23.75-6.35 47.05-18.37 67.39-20.682 35.019-35.223 70.704-43.884 106.69"/><path d="m302.15 169.91-14.48 14.48 35.77 35.77-35.77 35.77 14.48 14.48 50.25-50.25zM203.85 184.39l-14.48-14.48-50.25 50.25 50.25 50.25 14.48-14.48-35.77-35.77zM210.967 285.07l49.778-136.813 19.236 6.999-49.778 136.814z"/></g></svg>